<?xml version="1.0" encoding="UTF-8" standalone="no"?>
<!-- Created with Inkscape (http://www.inkscape.org/) -->

<svg
   xmlns:dc="http://purl.org/dc/elements/1.1/"
   xmlns:cc="http://creativecommons.org/ns#"
   xmlns:rdf="http://www.w3.org/1999/02/22-rdf-syntax-ns#"
   xmlns:svg="http://www.w3.org/2000/svg"
   xmlns="http://www.w3.org/2000/svg"
   xmlns:sodipodi="http://sodipodi.sourceforge.net/DTD/sodipodi-0.dtd"
   xmlns:inkscape="http://www.inkscape.org/namespaces/inkscape"
   width="210mm"
   height="45mm"
   viewBox="0 0 168 36.000001"
   version="1.1"
   id="svg8"
   inkscape:version="0.92.4 (5da689c313, 2019-01-14)"
   sodipodi:docname="pkl-header.svg">
  <defs
     id="defs2" />
  <sodipodi:namedview
     id="base"
     pagecolor="#464a48"
     bordercolor="#ffffff"
     borderopacity="1"
     inkscape:pageopacity="0"
     inkscape:pageshadow="2"
     inkscape:zoom="1.2158371"
     inkscape:cx="418.23563"
     inkscape:cy="33.697088"
     inkscape:document-units="mm"
     inkscape:current-layer="layer2"
     showgrid="false"
     inkscape:snap-global="false"
     inkscape:window-width="1920"
     inkscape:window-height="1135"
     inkscape:window-x="1920"
     inkscape:window-y="0"
     inkscape:window-maximized="1"
     showguides="true"
     inkscape:guide-bbox="true"
     scale-x="0.80000003" />
  <metadata
     id="metadata5">
    <rdf:RDF>
      <cc:Work
         rdf:about="">
        <dc:format>image/svg+xml</dc:format>
        <dc:type
           rdf:resource="http://purl.org/dc/dcmitype/StillImage" />
        <dc:title></dc:title>
      </cc:Work>
    </rdf:RDF>
  </metadata>
  <g
     inkscape:label="Ebene 1"
     inkscape:groupmode="layer"
     id="layer1"
     transform="translate(0,-219)">
    <flowRoot
       xml:space="preserve"
       id="flowRoot865"
       style="font-style:normal;font-variant:normal;font-weight:bold;font-stretch:normal;font-size:14.66666698px;line-height:125%;font-family:'Bitstream Charter';-inkscape-font-specification:'Bitstream Charter, Bold';font-variant-ligatures:normal;font-variant-caps:normal;font-variant-numeric:normal;font-feature-settings:normal;text-align:start;letter-spacing:0px;word-spacing:0px;writing-mode:lr-tb;text-anchor:start;fill:#ffffff;fill-opacity:1;stroke:none;stroke-width:1px;stroke-linecap:butt;stroke-linejoin:miter;stroke-opacity:1"><flowRegion
         id="flowRegion867"
         style="fill:#ffffff;fill-opacity:1"><rect
           id="rect869"
           width="427.15021"
           height="65.804222"
           x="180.09576"
           y="-128.71277"
           style="fill:#ffffff;fill-opacity:1" /></flowRegion><flowPara
         id="flowPara871" /></flowRoot>  </g>
  <g
     inkscape:groupmode="layer"
     id="layer2"
     inkscape:label="Ebene 2"
     transform="translate(0,-132)">
    <g
       id="g1055"
       transform="translate(0,194.88002)">
      <g
         id="g984">
        <path
           style="opacity:1;fill:#ffffff;fill-opacity:1;fill-rule:nonzero;stroke:none;stroke-width:0.09375795;stroke-linecap:butt;stroke-linejoin:round;stroke-miterlimit:4;stroke-dasharray:none;stroke-dashoffset:0;stroke-opacity:1;paint-order:markers stroke fill"
           d="m 117.80498,-61.453873 c -0.32051,0.0026 -0.64034,0.03014 -0.95655,0.08248 l 0.0494,0.05981 -0.15675,0.166334 c -0.17194,0.182245 -0.24592,0.466809 -0.17122,0.659266 0.0237,0.06105 0.10856,0.172968 0.18861,0.248814 0.13542,0.128303 0.16761,0.137278 0.46068,0.128415 0,0 0.242,-0.06527 0.31488,-0.0096 0.10259,0.210481 0.0877,0.576655 -0.0138,0.594378 -0.0391,0 -0.11736,0.02602 -0.17396,0.05765 -0.30632,0.171217 -0.41688,0.384602 -0.35103,0.677641 0.051,0.227051 0.18145,0.368973 0.43216,0.470463 0.17768,0.07193 0.18356,0.08123 0.17101,0.268357 -0.0205,0.30574 -0.0759,0.373417 -0.28594,0.349278 -0.51311,-0.05895 -0.84095,0.254797 -0.75075,0.718494 0.016,0.08224 0.0426,0.159934 0.0588,0.172585 0.0164,0.01267 0.0851,0.09678 0.15285,0.187049 l 0.12313,0.164185 c -0.12079,0.126736 -0.2568,0.250977 -0.40068,0.338915 -0.0294,0 -0.1298,-0.05187 -0.22301,-0.115122 -0.26775,-0.1817 -0.59714,-0.145477 -0.82365,0.0903 -0.10111,0.105238 -0.16408,0.379037 -0.1161,0.505248 0.0851,0.223759 0.0586,0.335182 -0.0981,0.413388 -0.21577,0.06505 -0.32458,0.120844 -0.39744,0.05369 -0.071,-0.06544 -0.10724,-0.251722 -0.21904,-0.351956 -0.11984,-0.116154 -0.20363,-0.153315 -0.38386,-0.170634 -0.21894,-0.02103 -0.23923,-0.01328 -0.40597,0.155974 -0.0965,0.09799 -0.20625,0.27137 -0.24373,0.38524 -0.0762,0.231434 -0.1467,0.259022 -0.4132,0.162033 -0.14231,-0.0518 -0.16233,-0.07933 -0.17316,-0.236891 -0.0203,-0.296502 -0.0527,-0.380521 -0.19976,-0.521082 -0.26764,-0.255769 -0.56625,-0.239157 -0.8684,0.04827 -0.13647,0.129816 -0.20416,0.169295 -0.27383,0.156364 -0.004,0.08261 -0.008,0.165304 -0.009,0.24803 3e-5,3.400527 2.75669,6.15719 6.15722,6.157217 3.4006,7.9e-5 6.15738,-2.756614 6.15741,-6.157217 8e-5,-3.400675 -2.75673,-6.157492 -6.15741,-6.15741 z m -2.68027,0.622521 c -1.4703,0.712771 -2.59701,1.980732 -3.13197,3.524636 0.004,0.0044 0.009,0.0104 0.0123,0.01445 0.21735,0.234115 0.59533,0.483719 0.91376,0.603564 0.5597,0.159439 1.08026,0.197609 1.61016,0.01585 1.20921,-0.427561 1.8489,-1.951842 1.50129,-2.897031 -0.1744,-0.446044 -0.41992,-0.841693 -0.671,-1.081255 -0.0606,-0.05785 -0.1421,-0.119225 -0.23455,-0.180211 z m 5.28522,1.461266 c 0.095,0.05466 0.11081,0.06822 0.16151,0.286296 0.15059,0.647703 0.72686,0.815724 1.17898,0.343805 0.23998,-0.307253 0.34173,-0.09884 0.62253,0.19702 -1e-4,0.02977 -0.0518,0.156189 -0.11492,0.28067 -0.13551,0.267095 -0.13738,0.290684 -0.0407,0.532421 0.11689,0.29211 0.29182,0.388573 0.69075,0.380941 0.36553,-0.007 0.38623,0.0055 0.46577,0.279109 0.066,0.227118 0.0438,0.276575 -0.1595,0.356117 -0.0934,0.03654 -0.22433,0.144354 -0.29709,0.244709 -0.25045,0.345462 -0.12836,0.780028 0.27286,0.970825 0.16551,0.07871 0.19359,0.112519 0.19428,0.234546 -0.004,0.155998 -0.0398,0.413915 -0.19269,0.420965 l -0.25099,0.01157 c -0.46989,0 -0.63256,0.101051 -0.75446,0.469089 -0.0594,0.179205 -0.0123,0.383694 0.12548,0.546688 0.0337,0.03994 0.0614,0.105752 0.0614,0.1462 0,0.08809 -0.3128,0.35612 -0.41553,0.35612 -0.0398,0 -0.13983,-0.06959 -0.22224,-0.154604 -0.43139,-0.445088 -1.00113,-0.267642 -1.16452,0.362566 -0.0708,0.273065 -0.0977,0.296701 -0.33695,0.296701 -0.10123,0 -0.20795,-0.01521 -0.23709,-0.03381 -0.0292,-0.01857 -0.0679,-0.133474 -0.0862,-0.25546 -0.0501,-0.33469 -0.35188,-0.629363 -0.64442,-0.629363 -0.17102,0 -0.41523,0.125412 -0.53202,0.273246 -0.0608,0.07696 -0.13671,0.140107 -0.16868,0.140334 -0.083,7.7e-4 -0.24677,-0.09734 -0.36589,-0.218907 -0.089,-0.09082 -0.0953,-0.120741 -0.0487,-0.230049 0.0295,-0.06911 0.0684,-0.146307 0.0864,-0.171614 0.0366,-0.05136 0.0586,-0.257323 0.0481,-0.447198 -0.004,-0.07534 -0.0714,-0.189519 -0.16946,-0.287514 -0.16047,-0.160474 -0.16743,-0.162422 -0.55196,-0.162422 -0.35491,0 -0.21429,0.06044 -0.34323,-0.01986 -0.10291,-0.06408 -0.1375,-0.280744 -0.13838,-0.391962 0,-0.149366 0.0174,-0.18076 0.11415,-0.205034 0.17969,-0.0451 0.4159,-0.281333 0.48219,-0.482188 0.0544,-0.164653 0.0509,-0.203941 -0.0328,-0.381919 -0.10611,-0.22547 -0.19996,-0.318363 -0.41397,-0.409867 -0.1302,-0.05568 -0.14952,-0.08605 -0.14952,-0.234153 -0.008,-0.124922 -0.003,-0.220084 0.0689,-0.326457 0.0463,-0.06833 0.21795,-0.06392 0.37966,-0.0668 0.38899,-0.007 0.53152,-0.04722 0.68077,-0.275006 0.10901,-0.16636 0.0995,-0.504216 -0.0199,-0.716928 -0.0536,-0.0953 -0.0857,-0.112481 -0.0973,-0.192526 -0.005,-0.03711 0.20898,-0.231831 0.31018,-0.288489 0.14848,-0.08313 0.18867,-0.0732 0.31605,0.07818 0.22505,0.267465 0.4975,0.337218 0.79843,0.204444 0.48251,-0.179015 0.22464,-0.84663 0.50733,-0.825599 0.0765,-0.01146 0.27269,-0.06862 0.38349,-0.0048 z m -0.91193,1.621252 c -0.36818,0.191478 -0.74587,0.478428 -0.89459,0.865866 -0.22229,0.579074 -0.17884,1.317198 0.1277,1.856434 0.19048,0.33508 0.58856,0.526127 0.95062,0.658287 0.44874,0.127743 0.93689,0.07535 1.33418,-0.08795 0.25658,-0.143036 0.54323,-0.318643 0.69976,-0.542138 0.16887,-0.307958 0.2774,-0.613256 0.32735,-0.925531 0.072,-0.933169 -0.34227,-1.610118 -1.25266,-1.904319 -0.42137,-0.08171 -0.93658,-0.09848 -1.29236,0.07935 z m -3.61884,2.350732 c 0.52563,-0.01343 0.48978,0.04337 0.47046,0.400098 0.004,0.337334 0.0976,0.523929 0.32114,0.640503 0.19,0.09908 0.45391,0.07404 0.64382,-0.06118 0.0699,-0.04973 0.15904,-0.0905 0.1982,-0.0905 0.0678,0 0.35162,0.362192 0.35162,0.448568 -0.30183,0.279268 -0.41691,0.300177 -0.48062,0.622132 -0.0772,0.275365 0.15802,0.590266 0.53085,0.710676 0.12943,0.0418 0.24625,0.1043 0.25956,0.138968 -3.8e-4,0.183191 -0.0571,0.317095 -0.11395,0.495086 l -0.29337,0.0038 c -0.49077,0.0062 -0.73033,0.203937 -0.73042,0.603173 -0.005,0.22313 0.10937,0.380164 0.18373,0.553332 -0.0333,0.111944 -0.41931,0.485315 -0.50008,0.361003 -0.17284,-0.265996 -0.11907,-0.281012 -0.31927,-0.378792 -0.0369,-0.03687 -0.16726,-0.06117 -0.32836,-0.06117 -0.24056,0 -0.28189,0.01483 -0.41261,0.148545 -0.0799,0.08171 -0.15622,0.200666 -0.16965,0.264451 -0.0438,0.190657 -0.10113,0.297181 -0.10113,0.297181 -0.11716,0.02255 -0.42934,-0.03938 -0.42934,-0.03938 -0.1363,-0.02984 -0.16224,-0.07351 -0.1419,-0.318786 0.0266,-0.320483 -0.0721,-0.533956 -0.30823,-0.666695 -0.2269,-0.127531 -0.27957,-0.125401 -0.61432,0.02481 l -0.27715,0.124501 -0.13115,-0.157142 c -0.1547,-0.185298 -0.17284,-0.388194 -0.041,-0.458734 0.17881,-0.09571 0.33483,-0.357789 0.33207,-0.557633 -0.004,-0.339142 -0.19712,-0.525699 -0.68683,-0.666109 -0.0764,-0.0219 -0.0732,-0.432042 0.004,-0.533789 0.0451,-0.05935 0.12815,-0.07601 0.35904,-0.07252 0.22939,0.0033 0.32839,-0.01633 0.41907,-0.08385 0.28545,-0.212511 0.34785,-0.573783 0.14952,-0.866059 -0.0633,-0.09322 -0.11513,-0.18922 -0.11513,-0.213241 0,-0.06329 0.36809,-0.320352 0.45874,-0.320348 0.0423,0 0.13548,0.07367 0.20717,0.163595 0.15323,0.192174 0.31818,0.286262 0.54591,0.311357 0.13837,0.01524 0.19266,-0.0082 0.33911,-0.145614 0.22347,-0.118472 0.19794,-0.245311 0.26368,-0.444266 0.0489,-0.102368 0.0788,-0.171422 0.15675,-0.17591 z m 0.18275,1.370173 c -0.25283,-0.120431 -0.71906,-0.07901 -0.95792,-0.02016 -0.5179,0.170944 -0.73904,0.721807 -0.74879,1.179175 3.1e-4,0.31447 0.13586,0.638809 0.33559,0.881699 0.32615,0.361949 0.76958,0.431808 1.19854,0.348885 0.63817,-0.236222 1.08405,-0.847688 0.93212,-1.51028 -0.10892,-0.423357 -0.37126,-0.781658 -0.75954,-0.879315 z"
           id="path819-6"
           inkscape:connector-curvature="0"
           sodipodi:nodetypes="cccccccccccsccccccccsccscccccccccccccccccccccccccccsccccccsccssccsscscscccccssscccsscsscsscsccaccaaccccccccssccccccsccsccccccccccsccsccsccccccccccccccc" />
        <path
           style="opacity:1;fill:#ffffff;fill-opacity:1;fill-rule:nonzero;stroke:none;stroke-width:0.09375795;stroke-linecap:butt;stroke-linejoin:round;stroke-miterlimit:4;stroke-dasharray:none;stroke-dashoffset:0;stroke-opacity:1;paint-order:markers stroke fill"
           d="m 151.15393,-48.096156 a 7.5891875,7.5891875 0 0 0 -1.39673,0.134474 c 0.0101,0.02658 0.0176,0.04425 0.0284,0.0729 0.2563,0.687104 0.39113,1.045279 0.86548,2.301285 0.0573,0.151573 0.1868,0.49613 0.2879,0.765596 0.10111,0.269465 0.19368,0.503354 0.20582,0.519715 0.0156,0.02105 0.0315,0.003 0.0547,-0.06137 0.018,-0.05004 0.1248,-0.334369 0.23728,-0.631904 0.11248,-0.297535 0.25815,-0.683431 0.32367,-0.85746 0.15311,-0.406598 0.409,-1.086093 0.59966,-1.592174 0.1019,-0.270496 0.15,-0.396227 0.19584,-0.515806 a 7.5891875,7.5891875 0 0 0 -1.40199,-0.135254 z m 1.64201,0.185682 c 0.0551,0.13984 0.079,0.197134 0.17083,0.434691 0.16058,0.415395 0.38259,0.989623 0.49334,1.275928 0.11072,0.286308 0.3327,0.860309 0.49331,1.275735 0.16061,0.415425 0.37202,0.962128 0.46988,1.21475 0.21828,0.563425 0.55072,1.422852 0.93153,2.408786 0.37384,0.967848 0.63936,1.654651 0.65713,1.699479 0.0132,0.03331 -0.0293,0.03577 -0.62937,0.03577 h -0.64362 l -0.056,-0.137796 c -0.0308,-0.07579 -0.12537,-0.316997 -0.21012,-0.535936 -0.16766,-0.433164 -0.44124,-1.138912 -0.62897,-1.622862 -0.49961,-1.287863 -0.59512,-1.533511 -0.90966,-2.337443 -0.0988,-0.252624 -0.19384,-0.498888 -0.21107,-0.547273 -0.0382,-0.107386 -0.0748,-0.110184 -0.11748,-0.009 -0.0178,0.0421 -0.0899,0.214285 -0.16027,0.3827 -0.0703,0.168417 -0.15681,0.375111 -0.19233,0.459319 -0.073,0.173106 -0.58139,1.387813 -0.76892,1.837274 -0.0679,0.162803 -0.13465,0.31906 -0.14815,0.347129 -0.0135,0.02807 -0.0566,0.131416 -0.096,0.22966 -0.0393,0.09824 -0.0764,0.178645 -0.0823,0.178645 -0.0106,0 -0.14022,-0.300813 -0.3872,-0.89831 -0.0673,-0.162803 -0.13922,-0.332709 -0.15987,-0.37762 -0.0207,-0.04491 -0.11329,-0.26545 -0.20583,-0.490004 -0.0925,-0.224555 -0.17903,-0.43125 -0.19232,-0.45932 -0.0133,-0.02807 -0.0816,-0.188679 -0.15167,-0.357096 -0.32098,-0.771159 -0.40302,-0.952477 -0.42414,-0.936227 -0.0124,0.0096 -0.0843,0.178203 -0.15969,0.374687 -0.17819,0.464721 -0.52424,1.356667 -0.89518,2.306952 -0.0811,0.207712 -0.21496,0.552075 -0.29748,0.765401 -0.43031,1.112402 -0.51894,1.340589 -0.57893,1.490343 -0.036,0.08982 -0.079,0.202268 -0.0956,0.249986 l -0.03,0.08678 h -0.64285 c -0.3599,0 -0.64305,-0.0079 -0.64305,-0.01818 0,-0.01004 0.0241,-0.0768 0.0534,-0.148155 0.0293,-0.07136 0.18242,-0.465044 0.34049,-0.874856 0.15807,-0.409811 0.36933,-0.956318 0.46948,-1.214556 0.10015,-0.258237 0.29737,-0.76815 0.43821,-1.133051 0.14084,-0.3649 0.34869,-0.902308 0.46186,-1.194229 0.11317,-0.291919 0.3105,-0.801638 0.4386,-1.132856 0.1281,-0.331216 0.35213,-0.909963 0.49782,-1.286092 0.14569,-0.376129 0.3494,-0.903067 0.45267,-1.170969 0.0251,-0.06517 0.0436,-0.111167 0.0661,-0.168482 a 7.5891875,7.5891875 0 0 0 -5.94769,7.399918 7.5891875,7.5891875 0 0 0 3.00043,6.03662 c 0.12131,-0.314293 0.25916,-0.67114 0.51404,-1.328701 0.22507,-0.580652 0.61355,-1.584782 0.92783,-2.398622 0.50679,-1.312367 0.73494,-1.902312 0.90397,-2.337443 0.10032,-0.258238 0.29856,-0.772701 0.44056,-1.143215 0.14201,-0.370516 0.26794,-0.690712 0.2799,-0.711651 0.0156,-0.02732 0.0544,0.05054 0.13701,0.275592 0.0633,0.172513 0.18988,0.511103 0.28126,0.7525 0.3117,0.823565 0.63394,1.67892 0.88775,2.356794 0.10068,0.268899 0.19307,0.502297 0.20543,0.518736 0.0245,0.03255 0.0146,0.05507 0.24861,-0.568773 0.0779,-0.207712 0.20744,-0.55227 0.28791,-0.765596 0.0804,-0.213327 0.21035,-0.557688 0.28849,-0.765401 0.0781,-0.207713 0.20666,-0.54772 0.28555,-0.755432 0.0789,-0.207714 0.20299,-0.535915 0.27579,-0.729437 0.0728,-0.193523 0.13511,-0.34978 0.13857,-0.347128 0.004,0.0026 0.16253,0.409177 0.35339,0.903195 0.4452,1.152322 0.88935,2.300051 1.45321,3.756055 0.13045,0.336832 0.33988,0.878788 0.46557,1.204393 0.1257,0.325603 0.32114,0.830966 0.43431,1.122887 0.10098,0.260511 0.25515,0.659236 0.3698,0.95636 a 7.5891875,7.5891875 0 0 0 2.99886,-6.031733 7.5891875,7.5891875 0 0 0 -5.94711,-7.403632 z m -3.15678,8.885374 c -0.0124,0.0057 -0.029,0.03106 -0.0367,0.05649 -0.008,0.02543 -0.0699,0.188734 -0.13799,0.362764 -0.35304,0.9019 -0.82206,2.109045 -1.56618,4.031646 -0.1,0.258237 -0.199,0.511016 -0.22008,0.561541 -0.0211,0.05053 -0.0517,0.130928 -0.0682,0.178645 l -0.009,0.02698 a 7.5891875,7.5891875 0 0 0 3.55337,0.889318 7.5891875,7.5891875 0 0 0 3.56003,-0.891274 l -0.0309,-0.07623 c -0.0308,-0.07579 -0.1234,-0.312252 -0.20583,-0.525578 -0.16171,-0.418599 -0.31911,-0.823401 -0.55137,-1.418806 -0.0811,-0.207713 -0.22721,-0.584313 -0.32485,-0.836937 -0.24063,-0.62257 -0.51113,-1.318463 -0.69445,-1.786261 -0.0836,-0.213326 -0.16611,-0.427352 -0.18333,-0.475737 -0.0173,-0.04839 -0.0432,-0.08804 -0.0577,-0.08815 -0.0144,-9.4e-5 -0.0656,0.09445 -0.11356,0.210309 -0.12399,0.299026 -0.83,1.982439 -1.00873,2.405266 -0.0356,0.08421 -0.12219,0.290903 -0.19253,0.459319 -0.0704,0.168417 -0.14294,0.341525 -0.16125,0.384851 l -0.0332,0.07876 -0.11865,-0.282824 c -0.0652,-0.155603 -0.15924,-0.379347 -0.20913,-0.497236 -0.0499,-0.117892 -0.14831,-0.352081 -0.21871,-0.520497 -0.0704,-0.168414 -0.19374,-0.462535 -0.27403,-0.653404 -0.0803,-0.190872 -0.20754,-0.493895 -0.28282,-0.673537 -0.34677,-0.827516 -0.39253,-0.929202 -0.41378,-0.91942 z"
           id="path823-5"
           inkscape:connector-curvature="0" />
        <path
           style="opacity:1;fill:#ffffff;fill-opacity:1;fill-rule:nonzero;stroke:none;stroke-width:0.11552318;stroke-linecap:butt;stroke-linejoin:round;stroke-miterlimit:4;stroke-dasharray:none;stroke-dashoffset:0;stroke-opacity:1;paint-order:markers stroke fill"
           d="m 31.594493,-61.123789 c -4.761623,1.3e-5 -8.736096,3.36846 -9.671492,7.852396 -1.64276,-0.734479 -3.421128,-1.116785 -5.220597,-1.122302 -6.222476,0.005 -11.5527234,4.455358 -12.6682056,10.577034 0.4507706,-0.692859 0.8803042,-1.189113 1.3036832,-1.501874 0.608419,-0.418218 1.314909,-0.703446 2.018853,-0.471241 0.2119399,0.07132 0.4067979,0.151506 0.4329319,0.178255 0.532717,0.545106 1.06115,0.890236 1.583379,1.033955 0.482488,0.132781 0.595339,0.140711 1.5577745,0.111018 0.359507,-0.01108 0.740274,-0.01307 0.846123,-0.0043 0.105845,0.0087 0.33307,0.02756 0.505055,0.04163 1.051291,0.08576 2.224948,0.696396 3.424173,1.782156 3.807647,3.310162 1.780567,-1.75218 2.239325,-3.409707 0.04559,-0.177836 0.158064,-0.54519 0.250378,-0.816025 0.141168,-0.41417 0.151695,-0.538355 0.06587,-0.782014 -0.05614,-0.159333 -0.153061,-0.462014 -0.21539,-0.672755 l -0.11317,-0.383092 0.373124,-0.06919 c 0.206708,-0.03833 0.538526,-0.03206 0.745073,0.01446 0.349874,0.07876 0.382732,0.07431 0.537501,-0.07388 0.118362,-0.113306 0.64773,-0.327141 1.037669,-0.337551 3.25181,-0.08688 3.370112,-0.660277 4.702055,-0.608645 0.05377,0.07924 0.348573,0.324547 0.561542,0.480623 0.916615,0.671744 1.177919,1.074247 0.86391,1.374829 -0.114179,0.109303 -0.05278,0.237278 -0.122355,0.379768 -0.105184,0.21541 -0.41959,0.301233 -0.664546,0.398729 -0.685767,-0.100053 -1.083281,0.07019 -1.751665,0.750154 -0.09455,0.09618 -0.20224,0.180543 -0.239433,0.187442 -0.03721,0.0067 -0.225719,0.128403 -0.418859,0.270118 -0.431996,0.332709 -0.817003,0.567215 -1.22296,0.85277 -0.426388,0.301266 -0.547261,0.430111 -0.591643,0.629558 -0.03066,0.137918 -0.11529,0.372269 -0.187636,0.520497 0.339201,2.571701 1.11828,8.284193 -3.620799,7.812327 -0.673814,0.09222 -0.777519,0.172118 -0.826578,0.636987 -0.05767,0.546573 -0.117737,0.70294 -0.488833,1.271629 -0.278228,0.426357 -0.31379,0.528196 -0.240605,0.688001 0.04721,0.103173 0.175716,0.591568 0.28556,1.08536 0.109876,0.493784 0.257527,1.008503 0.328168,1.143606 0.07064,0.135095 0.19272,0.406616 0.271291,0.603759 0.285586,0.716556 0.454866,1.093952 0.894793,1.981717 6.506252,-0.739569 11.423608,-6.240657 11.431759,-12.788801 -5.92e-4,-0.01147 -0.0011,-0.02293 -0.0018,-0.0344 0.741424,0.113972 1.436938,0.177471 2.006539,0.177474 5.456698,-1.5e-5 9.880225,-4.42354 9.880238,-9.88024 10e-7,-5.456674 -4.423525,-9.880199 -9.880224,-9.880213 z m -1.019883,3.159136 c 0.390377,0.0055 0.716254,0.05936 1.221983,0.159491 1.695402,0.335653 3.266522,1.190025 4.479823,2.474262 0.07622,0.08068 0.150557,0.162835 0.22321,0.246077 -1.960273,1.230121 -3.6023,2.935967 -4.948915,4.696192 0.01994,0.0093 0.04058,0.01902 0.06059,0.02834 1.632747,-1.732988 3.4427,-3.265221 5.276497,-4.31056 1.346041,1.78237 2.021147,3.398333 1.868938,5.633788 -0.704063,0.125085 -2.468105,0.170004 -4.237654,0.09265 0.929785,0.494693 1.557931,0.907975 1.427211,1.082429 -0.377836,0.281329 -0.465781,0.300104 -1.266547,0.148545 -1.102278,-0.208626 -3.112406,-0.798026 -5.430516,-2.145702 -0.661534,-0.384594 -0.983058,-1.002762 -0.484923,-1.738766 -0.306639,-0.763675 -1.701143,-3.877081 -1.07461,-4.175695 0.100144,1.057199 0.821962,3.072786 1.166277,4.055491 0.01141,0.02357 0.07438,0.06651 0.175911,0.124309 -0.455944,-1.897429 -0.689715,-4.674257 -0.127829,-4.845128 0.109345,1.948635 0.02237,3.564337 0.321328,4.94911 0.1525,0.07882 0.354852,0.177214 0.580697,0.284973 -0.365985,-2.221766 -0.262144,-4.471071 0.06684,-6.728139 0.199999,-0.01753 0.372051,-0.02786 0.529683,-0.03107 0.05911,-0.0012 0.116232,-0.0013 0.172,-5.9e-4 z m 0.433405,1.032993 c -0.03766,-0.0059 -0.07364,0.01753 -0.08378,0.05428 -0.761021,2.190433 -0.617447,4.601046 -0.05667,6.061803 -0.111548,-0.938589 -0.08471,-1.972595 0.05374,-2.998563 2.259748,0.300547 2.828275,-0.758406 3.513903,-1.68582 -0.597533,-0.469194 -1.195224,-0.77549 -1.788634,-0.987216 -0.593413,-0.211723 -1.058285,-0.354436 -1.638565,-0.444484 z m 0.451564,0.709667 c 0.852467,0.21958 1.525047,0.45505 2.137715,0.874056 -0.38557,0.699244 -1.276595,1.221174 -2.520406,1.472283 l -0.153654,0.04555 c 0.111664,-0.820475 0.294619,-1.635312 0.536345,-2.391889 z m 4.918364,3.257494 c -1.070136,0.03995 -2.595226,1.299123 -2.970221,2.61441 0.122417,0.153971 0.506232,0.5923 1.446846,0.716732 0.146728,0.04185 0.85919,-0.564646 1.078773,-1.172205 -0.481542,-0.533957 -1.158356,-0.726958 -1.178468,-0.749661 l -0.103257,0.01939 c 0.253986,0.108583 0.821647,0.516377 0.844797,0.763341 -0.435651,0.596532 -0.437707,0.613809 -0.656111,0.710063 -0.284566,-0.0074 -0.744395,-0.238584 -0.855748,-0.367083 0.289726,-1.216722 2.04504,-2.386081 2.819422,-2.473983 -0.129625,-0.04744 -0.273161,-0.06671 -0.426033,-0.061 z m -24.141096,20.734397 -0.219885,0.05981 c -1.495709,0.404551 -2.5506555,0.556673 -3.6333075,0.50525 1.345348,1.135778 2.9091575,1.983838 4.5949445,2.491853 -0.161339,-0.779608 -0.340585,-1.57084 -0.454823,-1.99364 z m 2.346436,0.449938 c -0.160409,0.02979 -0.0069,1.549709 0.260737,3.010198 0.506944,0.07521 1.017923,0.120115 1.530215,0.134473 -0.158471,-0.331064 -0.352855,-0.650605 -0.501536,-0.804492 -0.07538,-0.07804 -0.85922,-1.535772 -1.082234,-2.012793 -0.0865,-0.185089 -0.179825,-0.332466 -0.207182,-0.327386 z"
           id="path825-3"
           inkscape:connector-curvature="0"
           sodipodi:nodetypes="cccccccccccccccccccccccccccccccccccccccccccccccccccccccscccccccccccccccccccccccccccccccccccccccccccccccc" />
        <path
           style="opacity:1;fill:#ffffff;fill-opacity:1;fill-rule:nonzero;stroke:none;stroke-width:0.09375795;stroke-linecap:butt;stroke-linejoin:round;stroke-miterlimit:4;stroke-dasharray:none;stroke-dashoffset:0;stroke-opacity:1;paint-order:markers stroke fill"
           d="m 57.653158,-39.188846 a 5.4413047,5.4413047 0 0 0 -5.441264,5.441266 5.4413047,5.4413047 0 0 0 5.441264,5.441461 5.4413047,5.4413047 0 0 0 5.441268,-5.441461 5.4413047,5.4413047 0 0 0 -5.441268,-5.441266 z m -0.720251,1.757528 c 0.05868,-0.0075 0.217967,0.02814 0.683504,0.127047 0.287216,0.06102 0.863322,0.181345 1.280234,0.26738 0.736798,0.152048 1.116487,0.232063 2.501432,0.526947 0.365966,0.07792 0.665526,0.152918 0.665526,0.166724 0,0.02716 -0.154903,0.624424 -0.37117,1.430924 -0.07454,0.27794 -0.186403,0.694834 -0.248428,0.926457 -0.06202,0.23162 -0.176391,0.65606 -0.254283,0.943264 -0.07788,0.287207 -0.209465,0.778862 -0.292396,1.092398 -0.0829,0.313533 -0.157987,0.581602 -0.166727,0.595743 -0.02044,0.0331 -0.891673,0.510367 -2.575112,1.410795 -0.52809,0.282464 -1.073827,0.578534 -1.212801,0.657901 -0.380755,0.217443 -0.373266,0.217364 -0.5977,0.01112 -0.10671,-0.09804 -0.315744,-0.292352 -0.4644,-0.431759 -0.515712,-0.483606 -0.781536,-0.730166 -1.817734,-1.685407 -0.572847,-0.52809 -1.138935,-1.052635 -1.258148,-1.165691 l -0.216751,-0.20562 0.265428,-0.09264 c 0.497853,-0.173951 1.006199,-0.350262 1.343555,-0.465966 0.599083,-0.205477 1.103465,-0.381412 1.478414,-0.515805 l 0.366685,-0.13154 0.416507,-1.667623 c 0.229086,-0.91721 0.423908,-1.699783 0.43293,-1.73896 0.007,-0.03117 0.0062,-0.0512 0.04141,-0.05571 z m 0.286344,0.574052 -0.616466,2.867517 3.690383,1.949467 c -0.01938,0.102809 1.029264,-3.888378 1.029264,-3.888378 0,-0.0205 -0.057,-0.04755 -0.126454,-0.06001 -0.06951,-0.01244 -0.383945,-0.08149 -0.698949,-0.153432 -0.315004,-0.07195 -0.853384,-0.194111 -1.196184,-0.271292 -0.342792,-0.07717 -0.873252,-0.198362 -1.178978,-0.269336 -0.305744,-0.07097 -0.633893,-0.139158 -0.729247,-0.151673 z m -1.169208,3.565681 -1.557583,0.559785 c 0.01163,0.03158 2.773221,2.064274 2.805564,2.065761 0.138066,-0.08638 1.560015,-0.751865 1.526306,-0.846319 0,0 -2.73886,-1.716862 -2.774287,-1.779227 z m -1.212994,1.249545 c 0,0 -0.705362,0.335908 -0.623497,0.295134 l 0.972579,0.856483 0.744489,-0.400291 c 0,0 -0.0026,0.0289 -1.093571,-0.751326 z"
           id="path827-5"
           inkscape:connector-curvature="0" />
        <path
           style="opacity:1;fill:none;fill-opacity:1;fill-rule:nonzero;stroke:#ffffff;stroke-width:0.37822804;stroke-linecap:butt;stroke-linejoin:round;stroke-miterlimit:4;stroke-dasharray:none;stroke-dashoffset:0;stroke-opacity:1;paint-order:markers stroke fill"
           d="m 25.858395,-36.280873 26.857855,2.594237"
           id="path859-2"
           inkscape:connector-curvature="0"
           sodipodi:nodetypes="cc" />
        <path
           style="opacity:1;fill:none;fill-opacity:1;fill-rule:nonzero;stroke:#ffffff;stroke-width:0.37822804;stroke-linecap:butt;stroke-linejoin:round;stroke-miterlimit:4;stroke-dasharray:none;stroke-dashoffset:0;stroke-opacity:1;paint-order:markers stroke fill"
           d="M 28.330876,-40.498371 144.29419,-40.687407"
           id="path861-9"
           inkscape:connector-curvature="0"
           sodipodi:nodetypes="cc" />
        <path
           style="opacity:1;fill:none;fill-opacity:1;fill-rule:nonzero;stroke:#ffffff;stroke-width:0.37822804;stroke-linecap:butt;stroke-linejoin:round;stroke-miterlimit:4;stroke-dasharray:none;stroke-dashoffset:0;stroke-opacity:1;paint-order:markers stroke fill"
           d="m 38.002685,-46.573051 74.249485,-7.625592"
           id="path863-1"
           inkscape:connector-curvature="0"
           sodipodi:nodetypes="cc" />
        <g
           id="flowRoot885"
           style="font-style:normal;font-variant:normal;font-weight:normal;font-stretch:normal;font-size:14.66666698px;line-height:125%;font-family:Cantarell;-inkscape-font-specification:Cantarell;font-variant-ligatures:normal;font-variant-caps:normal;font-variant-numeric:normal;font-feature-settings:normal;text-align:start;letter-spacing:0px;word-spacing:0px;writing-mode:lr-tb;text-anchor:start;fill:#ffffff;fill-opacity:1;stroke:none;stroke-width:1px;stroke-linecap:butt;stroke-linejoin:miter;stroke-opacity:1"
           transform="matrix(0.60721618,0.00184417,-0.00184417,0.60721618,42.167991,-16.288421)"
           aria-label="connect all the things">
          <path
             id="path986"
             d="m 7.4375574,-41.510607 c 0.8506667,0 1.7306667,-0.205334 2.3173334,-0.557334 l -0.264,-0.850666 c -0.5866667,0.278666 -1.2320001,0.44 -1.7746667,0.44 -1.4666667,0 -2.3026668,-1.026667 -2.3026668,-2.742667 0,-1.701333 0.8213334,-2.625333 2.2880001,-2.625333 0.5573333,0 1.188,0.132 1.7746667,0.396 l 0.2786667,-0.953334 c -0.6453334,-0.308 -1.3346667,-0.469333 -2.0386667,-0.469333 -2.0973334,0 -3.5053335,1.554667 -3.5053335,3.886667 0,2.185333 1.2026667,3.476 3.2266668,3.476 z"
             inkscape:connector-curvature="0" />
          <path
             id="path988"
             d="m 14.357245,-41.510607 c 2.082667,0 3.490667,-1.510667 3.490667,-3.769334 0,-2.185333 -1.305333,-3.593333 -3.314667,-3.593333 -2.082667,0 -3.476,1.496 -3.476,3.754667 0,2.185333 1.290667,3.608 3.3,3.608 z m 0.161334,-1.026667 c -1.364,0 -2.288001,-1.1 -2.288001,-2.728 0,-1.569333 0.836001,-2.581333 2.141334,-2.581333 1.364,0 2.302667,1.114666 2.302667,2.728 0,1.554666 -0.850667,2.581333 -2.156,2.581333 z"
             inkscape:connector-curvature="0" />
          <path
             id="path990"
             d="m 19.805225,-41.657274 h 1.173333 v -5.529333 c 0.542667,-0.425334 1.188,-0.66 1.877334,-0.66 1.144,0 1.774666,0.645333 1.774666,1.789333 v 4.4 h 1.173334 v -4.634667 c 0,-1.569333 -1.041334,-2.581333 -2.625334,-2.581333 -0.806666,0 -1.613333,0.278667 -2.288,0.777333 l -0.264,-0.630666 h -0.821333 z"
             inkscape:connector-curvature="0" />
          <path
             id="path992"
             d="m 28.112517,-41.657274 h 1.173333 v -5.529333 c 0.542667,-0.425334 1.188,-0.66 1.877334,-0.66 1.144,0 1.774666,0.645333 1.774666,1.789333 v 4.4 h 1.173334 v -4.634667 c 0,-1.569333 -1.041334,-2.581333 -2.625334,-2.581333 -0.806666,0 -1.613333,0.278667 -2.288,0.777333 l -0.264,-0.630666 h -0.821333 z"
             inkscape:connector-curvature="0" />
          <path
             id="path994"
             d="m 39.58781,-41.510607 c 0.806667,0 1.686667,-0.190667 2.317333,-0.528 l -0.264,-0.850667 c -0.542666,0.264 -1.232,0.425333 -1.848,0.425333 -1.496,0 -2.434666,-0.894666 -2.610666,-2.405333 h 4.928 c 0.02933,-0.22 0.05867,-0.733333 0.05867,-1.012 0,-1.774667 -1.173333,-2.992 -2.918666,-2.992 -1.965334,0 -3.3,1.54 -3.3,3.710667 0,2.258666 1.393333,3.652 3.637333,3.652 z m -0.425333,-6.365334 c 1.202666,0 1.906666,0.777334 1.906666,2.126667 H 37.16781 c 0.102667,-1.378667 0.806667,-2.126667 1.994667,-2.126667 z"
             inkscape:connector-curvature="0" />
          <path
             id="path996"
             d="m 46.911518,-41.510607 c 0.850667,0 1.730667,-0.205334 2.317334,-0.557334 l -0.264,-0.850666 c -0.586667,0.278666 -1.232,0.44 -1.774667,0.44 -1.466667,0 -2.302667,-1.026667 -2.302667,-2.742667 0,-1.701333 0.821334,-2.625333 2.288,-2.625333 0.557334,0 1.188,0.132 1.774667,0.396 l 0.278667,-0.953334 c -0.645334,-0.308 -1.334667,-0.469333 -2.038667,-0.469333 -2.097333,0 -3.505333,1.554667 -3.505333,3.886667 0,2.185333 1.202666,3.476 3.226666,3.476 z"
             inkscape:connector-curvature="0" />
          <path
             id="path998"
             d="m 53.31787,-41.583941 c 0.484,0 0.968,-0.117333 1.305333,-0.264 l -0.264,-0.850666 c -0.22,0.102666 -0.542666,0.161333 -0.792,0.161333 -0.733333,0 -1.217333,-0.469333 -1.217333,-1.173333 v -4.033334 h 1.936 v -0.982666 h -1.936 v -2.068 h -1.173334 v 2.068 h -0.953333 v 0.982666 h 0.953333 v 4.194667 c 0,1.173333 0.850667,1.965333 2.141334,1.965333 z"
             inkscape:connector-curvature="0" />
          <path
             id="path1000"
             style="font-size:11.55977821px"
             d="m 60.747217,-41.541676 c 0.705147,0 1.306255,-0.231196 1.757087,-0.635788 l 0.219636,0.52019 h 0.647347 v -3.618211 c 0,-1.329374 -0.786065,-2.0692 -2.242597,-2.0692 -0.728266,0 -1.514331,0.196516 -2.115439,0.53175 l 0.231195,0.682027 c 0.577989,-0.254315 1.155978,-0.381473 1.699288,-0.381473 0.994141,0 1.502771,0.416152 1.502771,1.236896 v 0.369913 c -2.496912,0.02312 -3.583531,0.54331 -3.583531,1.733967 0,0.994141 0.739825,1.629929 1.884243,1.629929 z m -0.959461,-1.733967 c 0,-0.693587 0.786065,-0.982581 2.658749,-0.994141 v 1.364054 c -0.346794,0.346793 -0.855424,0.554869 -1.433413,0.554869 -0.739825,0 -1.225336,-0.369913 -1.225336,-0.924782 z"
             inkscape:connector-curvature="0" />
          <path
             id="path1002"
             style="font-size:11.55977821px"
             d="m 66.419818,-41.587915 c 0.300554,0 0.658907,-0.06936 0.878543,-0.184957 l -0.208076,-0.647347 c -0.138717,0.0578 -0.265875,0.09248 -0.404592,0.09248 -0.393033,0 -0.601109,-0.265875 -0.601109,-0.693587 v -7.178622 h -0.924782 v 7.29422 c 0,0.797625 0.49707,1.317815 1.260016,1.317815 z"
             inkscape:connector-curvature="0" />
          <path
             id="path1004"
             style="font-size:11.55977821px"
             d="m 69.558116,-41.587915 c 0.300554,0 0.658907,-0.06936 0.878543,-0.184957 l -0.208076,-0.647347 c -0.138717,0.0578 -0.265875,0.09248 -0.404592,0.09248 -0.393033,0 -0.601109,-0.265875 -0.601109,-0.693587 V -50.19995 H 68.2981 v 7.29422 c 0,0.797625 0.49707,1.317815 1.260016,1.317815 z"
             inkscape:connector-curvature="0" />
          <path
             id="path1006"
             style="font-size:11.55977821px"
             d="m 75.848803,-41.599475 c 0.381473,0 0.762946,-0.09248 1.028821,-0.208076 l -0.208076,-0.670467 c -0.173397,0.08092 -0.427712,0.127157 -0.624228,0.127157 -0.577989,0 -0.959462,-0.369913 -0.959462,-0.924782 v -3.178939 h 1.525891 v -0.774505 h -1.525891 v -1.629929 h -0.924782 v 1.629929 H 73.40969 v 0.774505 h 0.751386 v 3.306097 c 0,0.924782 0.670467,1.54901 1.687727,1.54901 z"
             inkscape:connector-curvature="0" />
          <path
             id="path1008"
             style="font-size:11.55977821px"
             d="m 78.199231,-41.657274 h 0.924782 v -4.311797 c 0.427712,-0.381473 0.936342,-0.566429 1.479651,-0.566429 0.901663,0 1.398734,0.50863 1.398734,1.410293 v 3.467933 h 0.924782 v -3.65289 c 0,-1.236896 -0.820744,-2.034521 -2.0692,-2.034521 -0.612669,0 -1.225337,0.196516 -1.733967,0.589549 v -3.444814 h -0.924782 z"
             inkscape:connector-curvature="0" />
          <path
             id="path1010"
             style="font-size:11.55977821px"
             d="m 87.243674,-41.541676 c 0.635788,0 1.329374,-0.150277 1.826445,-0.416152 l -0.208076,-0.670467 c -0.427712,0.208076 -0.971022,0.335233 -1.456532,0.335233 -1.179098,0 -1.918923,-0.705146 -2.057641,-1.895803 h 3.884086 c 0.02312,-0.173397 0.04624,-0.577989 0.04624,-0.797625 0,-1.398733 -0.924782,-2.358195 -2.300396,-2.358195 -1.54901,0 -2.60095,1.213777 -2.60095,2.924624 0,1.780206 1.098179,2.878385 2.866824,2.878385 z M 86.90844,-46.55862 c 0.947902,0 1.502771,0.612668 1.502771,1.676168 H 85.33631 c 0.08092,-1.086619 0.635788,-1.676168 1.57213,-1.676168 z"
             inkscape:connector-curvature="0" />
          <path
             id="path1012"
             d="m 96.654921,-41.583941 c 0.484,0 0.968,-0.117333 1.305334,-0.264 l -0.264,-0.850666 c -0.22,0.102666 -0.542667,0.161333 -0.792,0.161333 -0.733334,0 -1.217334,-0.469333 -1.217334,-1.173333 v -4.033334 h 1.936 v -0.982666 h -1.936 v -2.068 h -1.173333 v 2.068 h -0.953333 v 0.982666 h 0.953333 v 4.194667 c 0,1.173333 0.850667,1.965333 2.141333,1.965333 z"
             inkscape:connector-curvature="0" />
          <path
             id="path1014"
             d="m 99.637072,-41.657274 h 1.173338 v -5.470667 c 0.54266,-0.484 1.188,-0.718666 1.87733,-0.718666 1.144,0 1.77467,0.645333 1.77467,1.789333 v 4.4 h 1.17333 v -4.634667 c 0,-1.569333 -1.04133,-2.581333 -2.62533,-2.581333 -0.77734,0 -1.55467,0.249333 -2.2,0.748 v -4.370667 h -1.173338 z"
             inkscape:connector-curvature="0" />
          <path
             id="path1016"
             d="m 108.60436,-50.383941 c 0.528,0 0.836,-0.308 0.836,-0.836 0,-0.528 -0.308,-0.836 -0.836,-0.836 -0.528,0 -0.836,0.308 -0.836,0.836 0,0.528 0.308,0.836 0.836,0.836 z m -0.60133,8.726667 h 1.17333 v -7.069333 h -1.17333 z"
             inkscape:connector-curvature="0" />
          <path
             id="path1018"
             d="m 111.66832,-41.657274 h 1.17334 v -5.529333 c 0.54266,-0.425334 1.188,-0.66 1.87733,-0.66 1.144,0 1.77467,0.645333 1.77467,1.789333 v 4.4 h 1.17333 v -4.634667 c 0,-1.569333 -1.04133,-2.581333 -2.62533,-2.581333 -0.80667,0 -1.61334,0.278667 -2.288,0.777333 l -0.264,-0.630666 h -0.82134 z"
             inkscape:connector-curvature="0" />
          <path
             id="path1020"
             d="m 122.67428,-41.510607 c 0.82133,0 1.52533,-0.278667 2.05333,-0.777334 v 0.601334 c 0,1.569333 -0.704,2.346666 -2.112,2.346666 -0.63067,0 -1.39333,-0.161333 -2.05333,-0.44 l -0.24934,0.894667 c 0.73334,0.366667 1.48134,0.557333 2.21467,0.557333 2.03867,0 3.37333,-1.408 3.37333,-3.534666 v -6.864 h -0.82133 l -0.22,0.601333 c -0.51333,-0.484 -1.21733,-0.748 -2.03867,-0.748 -1.96533,0 -3.3,1.481333 -3.3,3.725333 0,2.185334 1.26134,3.637334 3.15334,3.637334 z m -1.98,-3.754667 c 0,-1.554667 0.82133,-2.581333 2.18533,-2.581333 0.792,0 1.42267,0.322666 1.848,0.88 v 3.622666 c -0.396,0.513334 -0.99733,0.806667 -1.716,0.806667 -1.408,0 -2.31733,-1.1 -2.31733,-2.728 z"
             inkscape:connector-curvature="0" />
          <path
             id="path1022"
             d="m 130.48153,-41.510607 c 1.74533,0 2.816,-0.821334 2.816,-2.126667 0,-2.596 -4.224,-1.628 -4.224,-3.226667 0,-0.616 0.66,-1.012 1.716,-1.012 0.60133,0 1.30533,0.132 1.90667,0.337334 l 0.27866,-0.953334 c -0.60133,-0.249333 -1.32,-0.381333 -2.068,-0.381333 -1.83333,0 -3.00666,0.806667 -3.00666,2.141333 0,2.537334 4.20933,1.481334 4.20933,3.212 0,0.645334 -0.572,1.012 -1.54,1.012 -0.748,0 -1.74533,-0.205333 -2.49333,-0.528 l -0.27867,0.953334 c 0.80667,0.366666 1.78933,0.572 2.684,0.572 z"
             inkscape:connector-curvature="0" />
        </g>
        <path
           style="opacity:1;fill:#ffffff;fill-opacity:1;fill-rule:nonzero;stroke:none;stroke-width:0.22693685;stroke-linecap:butt;stroke-linejoin:round;stroke-miterlimit:4;stroke-dasharray:none;stroke-dashoffset:0;stroke-opacity:1;paint-order:markers stroke fill"
           d="m 61.72884,-60.170582 a 3.4659028,3.4659028 0 0 0 -3.466002,3.465999 3.4659028,3.4659028 0 0 0 3.466002,3.465805 3.4659028,3.4659028 0 0 0 3.465808,-3.465805 3.4659028,3.4659028 0 0 0 -3.465808,-3.465999 z m -1.072074,1.286288 c 0.05744,0 0.105143,0.01894 0.142877,0.05668 0.03938,0.0361 0.05903,0.07861 0.05903,0.127828 0,0.04102 -0.01075,0.09856 -0.03207,0.172391 l -0.233764,0.829315 h 0.374103 l 0.243535,-0.866256 c 0.03277,-0.118132 0.07709,-0.201037 0.132912,-0.248618 0.05744,-0.04758 0.122278,-0.07134 0.194479,-0.07134 0.05903,0 0.107486,0.01894 0.14522,0.05668 0.03938,0.03773 0.05903,0.08365 0.05903,0.137796 0,0.03773 -0.01233,0.09187 -0.03692,0.162424 l -0.233764,0.829314 h 0.118049 c 0.113213,0 0.189501,0.01804 0.228875,0.05414 0.04106,0.03446 0.06158,0.08378 0.06158,0.147764 0,0.101726 -0.04846,0.185336 -0.145221,0.250964 -0.05083,0.03446 -0.134471,0.0516 -0.25097,0.0516 h -0.155 l -0.155185,0.551379 h 0.08874 c 0.113212,0 0.189501,0.01804 0.228874,0.05414 0.04106,0.03446 0.06158,0.08358 0.06158,0.147568 0,0.100084 -0.04846,0.18389 -0.14522,0.25116 -0.05084,0.03446 -0.134666,0.0516 -0.251156,0.0516 h -0.125485 l -0.243535,0.866256 c -0.0053,0.01312 -0.0296,0.07137 -0.07392,0.174736 -0.02458,0.03938 -0.06158,0.07316 -0.110825,0.101051 -0.04925,0.02789 -0.09764,0.04182 -0.14522,0.04182 -0.05577,0 -0.102402,-0.01894 -0.140146,-0.05669 -0.03771,-0.03773 -0.05665,-0.08114 -0.05665,-0.130369 0,-0.0361 0.01075,-0.09274 0.03207,-0.169851 l 0.233764,-0.826969 H 60.15233 l -0.243728,0.86391 c -0.02458,0.08696 -0.04176,0.138589 -0.05163,0.154996 -0.02793,0.04922 -0.06722,0.08872 -0.118058,0.118251 -0.04925,0.03117 -0.10175,0.04671 -0.157537,0.04671 -0.05744,0 -0.105847,-0.01894 -0.14522,-0.05669 -0.03771,-0.03773 -0.05665,-0.08114 -0.05665,-0.130368 0,-0.0361 0.01075,-0.09184 0.03207,-0.16731 l 0.233764,-0.82951 h -0.122939 c -0.113204,0 -0.1904,-0.01714 -0.231412,-0.0516 -0.03938,-0.0361 -0.05903,-0.08612 -0.05903,-0.150109 0,-0.09844 0.04661,-0.181349 0.140137,-0.248618 0.05251,-0.0361 0.137916,-0.05414 0.256045,-0.05414 h 0.159881 l 0.155193,-0.551378 h -0.09362 c -0.111574,0 -0.187862,-0.01714 -0.228883,-0.0516 -0.03938,-0.0361 -0.05903,-0.08522 -0.05903,-0.147568 0,-0.100084 0.04749,-0.18389 0.142683,-0.251159 0.05084,-0.0361 0.13537,-0.05414 0.253508,-0.05414 h 0.128022 l 0.243729,-0.866256 c 0.02458,-0.08532 0.04264,-0.137847 0.05418,-0.157537 0.02793,-0.04758 0.06625,-0.08617 0.115512,-0.115709 0.05084,-0.03117 0.103389,-0.04671 0.157537,-0.04671 z m 3.288131,0.189591 c 0.09353,0 0.171422,0.02948 0.233773,0.08854 0.06238,0.05907 0.09342,0.128742 0.09342,0.209137 0,0.06235 -0.01965,0.155978 -0.05903,0.280673 l -0.462629,1.520833 c -0.02467,0.07876 -0.06484,0.140406 -0.120596,0.184705 -0.0541,0.04266 -0.113291,0.06391 -0.177281,0.06391 -0.06731,0 -0.118895,-0.01804 -0.154991,-0.05414 -0.03612,-0.0361 -0.05409,-0.08863 -0.05409,-0.157536 0,-0.01149 8.81e-4,-0.02381 0.0026,-0.03694 l 0.184506,-1.520834 c 0.01639,-0.141103 0.04344,-0.247768 0.08114,-0.31996 0.03771,-0.07219 0.09849,-0.132942 0.182162,-0.182164 0.08528,-0.05086 0.169131,-0.07623 0.251164,-0.07623 z m -3.494723,1.501093 -0.155194,0.551378 h 0.374103 l 0.154991,-0.551378 z m 2.898988,1.326551 c 0.08696,0 0.151114,0.01894 0.192126,0.05669 0.04264,0.03773 0.06387,0.08616 0.06387,0.145223 0,0.08203 -0.03357,0.154921 -0.100852,0.21891 -0.06731,0.06235 -0.155176,0.09362 -0.263472,0.09362 -0.08696,0 -0.151626,-0.01965 -0.194285,-0.05903 -0.04106,-0.03773 -0.06158,-0.08776 -0.06158,-0.150108 0,-0.07876 0.03357,-0.149331 0.100852,-0.211678 0.0689,-0.06235 0.156629,-0.09362 0.263278,-0.09362 z"
           id="path972-0"
           inkscape:connector-curvature="0" />
        <path
           style="opacity:1;fill:none;fill-opacity:1;fill-rule:nonzero;stroke:#ffffff;stroke-width:0.37822804;stroke-linecap:butt;stroke-linejoin:round;stroke-miterlimit:4;stroke-dasharray:none;stroke-dashoffset:0;stroke-opacity:1;paint-order:markers stroke fill"
           d="m 40.541145,-51.304321 18.842593,-3.951276"
           id="path982-9"
           inkscape:connector-curvature="0"
           sodipodi:nodetypes="cc" />
      </g>
    </g>
    <flowRoot
       xml:space="preserve"
       id="flowRoot952"
       style="font-style:normal;font-variant:normal;font-weight:bold;font-stretch:normal;font-size:14.66666698px;line-height:125%;font-family:'Bitstream Charter';-inkscape-font-specification:'Bitstream Charter, Bold';font-variant-ligatures:normal;font-variant-caps:normal;font-variant-numeric:normal;font-feature-settings:normal;text-align:start;letter-spacing:0px;word-spacing:0px;writing-mode:lr-tb;text-anchor:start;fill:#000000;fill-opacity:1;stroke:none;stroke-width:1px;stroke-linecap:butt;stroke-linejoin:miter;stroke-opacity:1"
       transform="scale(0.21166667)"><flowRegion
         id="flowRegion954"><rect
           id="rect956"
           width="65.136978"
           height="110.50024"
           x="409.43243"
           y="176.06264" /></flowRegion><flowPara
         id="flowPara958"></flowPara></flowRoot>  </g>
</svg>
